<?xml version="1.0" encoding="utf-8"?>
<!-- Generator: Adobe Illustrator 18.0.0, SVG Export Plug-In . SVG Version: 6.00 Build 0)  -->
<!DOCTYPE svg PUBLIC "-//W3C//DTD SVG 1.1//EN" "http://www.w3.org/Graphics/SVG/1.1/DTD/svg11.dtd">
<svg version="1.1" id="Layer_4" xmlns="http://www.w3.org/2000/svg" xmlns:xlink="http://www.w3.org/1999/xlink" x="0px" y="0px"
	 width="134.1px" height="32px" viewBox="0 0 134.1 32" enable-background="new 0 0 134.1 32" xml:space="preserve">
<g>
	<g>
		<path d="M5.3,15c-0.4-0.1-0.7-0.3-1-0.5l0.4-1C5,13.8,5.3,13.9,5.6,14c0.3,0.1,0.6,0.2,1,0.2c0.4,0,0.6-0.1,0.8-0.2
			c0.2-0.1,0.3-0.2,0.3-0.4c0-0.1-0.1-0.2-0.2-0.3c-0.1-0.1-0.2-0.2-0.4-0.2c-0.2-0.1-0.4-0.1-0.6-0.2c-0.4-0.1-0.8-0.2-1-0.3
			c-0.3-0.1-0.5-0.3-0.7-0.5c-0.2-0.2-0.3-0.5-0.3-0.9c0-0.3,0.1-0.6,0.3-0.9c0.2-0.3,0.4-0.5,0.8-0.6c0.3-0.2,0.8-0.2,1.3-0.2
			c0.4,0,0.7,0,1,0.1C8.1,9.7,8.4,9.8,8.7,10l-0.4,1c-0.5-0.3-1-0.4-1.5-0.4c-0.4,0-0.6,0.1-0.8,0.2c-0.2,0.1-0.3,0.3-0.3,0.5
			c0,0.2,0.1,0.3,0.3,0.4c0.2,0.1,0.5,0.2,0.9,0.3c0.4,0.1,0.8,0.2,1,0.3s0.5,0.3,0.7,0.5c0.2,0.2,0.3,0.5,0.3,0.9
			c0,0.3-0.1,0.6-0.3,0.9c-0.2,0.3-0.4,0.5-0.8,0.6c-0.4,0.2-0.8,0.2-1.3,0.2C6.1,15.2,5.7,15.1,5.3,15z"/>
		<path d="M10.8,10.6H9.1v-1h4.8v1h-1.8v4.5h-1.3V10.6z"/>
		<path d="M17.9,13.9h-2.5l-0.5,1.2h-1.3L16,9.6h1.3l2.5,5.5h-1.3L17.9,13.9z M17.5,13l-0.9-2.1L15.7,13H17.5z"/>
		<path d="M23.8,15.1l-1.1-1.5h-0.1h-1.1v1.5h-1.3V9.6h2.4c0.5,0,0.9,0.1,1.3,0.2c0.4,0.2,0.6,0.4,0.8,0.7c0.2,0.3,0.3,0.7,0.3,1.1
			s-0.1,0.8-0.3,1.1c-0.2,0.3-0.5,0.5-0.8,0.7l1.2,1.8H23.8z M23.4,10.9c-0.2-0.2-0.5-0.2-0.9-0.2h-1v1.9h1c0.4,0,0.7-0.1,0.9-0.3
			c0.2-0.2,0.3-0.4,0.3-0.7C23.7,11.3,23.6,11.1,23.4,10.9z"/>
		<path d="M27.1,10.6h-1.8v-1h4.8v1h-1.8v4.5h-1.3V10.6z"/>
		<path d="M31.3,14.5c-0.4-0.4-0.7-1.1-0.7-1.9V9.6h1.3v3c0,1,0.4,1.5,1.2,1.5c0.4,0,0.7-0.1,0.9-0.4c0.2-0.2,0.3-0.6,0.3-1.1v-3
			h1.3v3.1c0,0.8-0.2,1.4-0.7,1.9c-0.4,0.4-1,0.7-1.8,0.7C32.4,15.2,31.7,15,31.3,14.5z"/>
		<path d="M40.5,9.9c0.4,0.2,0.6,0.4,0.8,0.7s0.3,0.7,0.3,1.1c0,0.4-0.1,0.8-0.3,1.1c-0.2,0.3-0.5,0.5-0.8,0.7
			c-0.4,0.2-0.8,0.2-1.3,0.2h-1.1v1.5h-1.3V9.6h2.4C39.7,9.6,40.2,9.7,40.5,9.9z M40.1,12.3c0.2-0.2,0.3-0.4,0.3-0.7
			c0-0.3-0.1-0.5-0.3-0.7c-0.2-0.2-0.5-0.2-0.9-0.2h-1v1.9h1C39.6,12.6,39.9,12.5,40.1,12.3z"/>
	</g>
	<g>
		<path d="M12.3,16.3l-3.1,7.3H7.5l-3.1-7.3h1.8l2.2,5.2l2.2-5.2H12.3z"/>
		<path d="M12.9,16.3h1.7v7.3h-1.7V16.3z"/>
		<path d="M17,23.5c-0.5-0.2-1-0.4-1.3-0.6l0.6-1.3c0.3,0.2,0.7,0.4,1.1,0.6c0.4,0.1,0.9,0.2,1.3,0.2c0.5,0,0.8-0.1,1.1-0.2
			c0.2-0.1,0.3-0.3,0.3-0.6c0-0.2-0.1-0.3-0.2-0.4c-0.1-0.1-0.3-0.2-0.5-0.3c-0.2-0.1-0.5-0.1-0.9-0.2c-0.6-0.1-1-0.3-1.4-0.4
			c-0.4-0.1-0.7-0.3-0.9-0.6c-0.3-0.3-0.4-0.7-0.4-1.2c0-0.4,0.1-0.8,0.3-1.1c0.2-0.3,0.6-0.6,1-0.8c0.5-0.2,1-0.3,1.7-0.3
			c0.5,0,0.9,0.1,1.4,0.2c0.4,0.1,0.8,0.3,1.2,0.5L21,18.1c-0.7-0.4-1.3-0.6-2-0.6c-0.5,0-0.8,0.1-1,0.2c-0.2,0.2-0.3,0.4-0.3,0.6
			c0,0.2,0.1,0.4,0.4,0.6c0.3,0.1,0.7,0.2,1.2,0.4c0.6,0.1,1,0.3,1.4,0.4c0.4,0.1,0.7,0.3,0.9,0.6c0.3,0.3,0.4,0.7,0.4,1.2
			c0,0.4-0.1,0.8-0.3,1.1c-0.2,0.3-0.6,0.6-1,0.8c-0.5,0.2-1,0.3-1.7,0.3C18.1,23.7,17.6,23.7,17,23.5z"/>
		<path d="M22.9,16.3h1.7v7.3h-1.7V16.3z"/>
		<path d="M27.8,23.3c-0.6-0.3-1.1-0.8-1.4-1.3c-0.3-0.6-0.5-1.2-0.5-1.9s0.2-1.4,0.5-1.9c0.3-0.6,0.8-1,1.4-1.3
			c0.6-0.3,1.3-0.5,2-0.5c0.8,0,1.4,0.2,2,0.5c0.6,0.3,1.1,0.8,1.4,1.3c0.3,0.6,0.5,1.2,0.5,1.9s-0.2,1.4-0.5,1.9
			c-0.3,0.6-0.8,1-1.4,1.3c-0.6,0.3-1.3,0.5-2,0.5C29.1,23.7,28.4,23.6,27.8,23.3z M31,22c0.3-0.2,0.6-0.5,0.8-0.8
			c0.2-0.4,0.3-0.8,0.3-1.2c0-0.5-0.1-0.9-0.3-1.2c-0.2-0.4-0.5-0.6-0.8-0.8c-0.3-0.2-0.7-0.3-1.2-0.3c-0.4,0-0.8,0.1-1.2,0.3
			c-0.3,0.2-0.6,0.5-0.8,0.8c-0.2,0.4-0.3,0.8-0.3,1.2c0,0.5,0.1,0.9,0.3,1.2c0.2,0.4,0.5,0.6,0.8,0.8c0.3,0.2,0.7,0.3,1.2,0.3
			C30.3,22.3,30.7,22.2,31,22z"/>
		<path d="M41.8,16.3v7.3h-1.4l-3.6-4.4v4.4h-1.7v-7.3h1.4l3.6,4.4v-4.4H41.8z"/>
	</g>
	<g>
		<path d="M47.9,23.4c-1-0.3-1.8-0.7-2.5-1.2l1.1-2.4c0.6,0.4,1.3,0.8,2.1,1.1c0.8,0.3,1.6,0.4,2.5,0.4c0.9,0,1.6-0.1,2-0.4
			c0.4-0.3,0.7-0.6,0.7-1.1c0-0.3-0.1-0.6-0.4-0.8c-0.3-0.2-0.6-0.4-1-0.5c-0.4-0.1-0.9-0.3-1.6-0.4c-1.1-0.3-1.9-0.5-2.6-0.8
			c-0.7-0.3-1.3-0.7-1.7-1.2c-0.5-0.6-0.7-1.3-0.7-2.2c0-0.8,0.2-1.5,0.7-2.2c0.4-0.7,1.1-1.2,2-1.6c0.9-0.4,2-0.6,3.2-0.6
			c0.9,0,1.8,0.1,2.6,0.3c0.8,0.2,1.6,0.5,2.2,0.9l-1,2.4c-1.3-0.7-2.6-1.1-3.8-1.1c-0.9,0-1.6,0.1-2,0.4c-0.4,0.3-0.6,0.7-0.6,1.2
			c0,0.5,0.2,0.8,0.7,1.1c0.5,0.2,1.3,0.5,2.3,0.7c1.1,0.3,1.9,0.5,2.6,0.8c0.7,0.3,1.3,0.6,1.7,1.2c0.5,0.5,0.7,1.3,0.7,2.2
			c0,0.8-0.2,1.5-0.7,2.2c-0.4,0.7-1.1,1.2-2,1.6c-0.9,0.4-2,0.6-3.2,0.6C50,23.8,48.9,23.7,47.9,23.4z"/>
		<path d="M60.7,22.2c-1.1-1.1-1.7-2.7-1.7-4.7V9.7h3.2v7.7c0,2.5,1,3.7,3.1,3.7c1,0,1.8-0.3,2.3-0.9c0.5-0.6,0.8-1.5,0.8-2.8V9.7
			h3.2v7.8c0,2-0.6,3.6-1.7,4.7c-1.1,1.1-2.6,1.6-4.6,1.6C63.3,23.8,61.8,23.3,60.7,22.2z"/>
		<path d="M87.4,23.6l0-8.3l-4.1,6.9h-1.4l-4.1-6.7v8.2h-3V9.7h2.7l5.2,8.6l5.1-8.6h2.6l0,13.9H87.4z"/>
		<path d="M106.4,23.6l0-8.3l-4.1,6.9h-1.4l-4.1-6.7v8.2h-3V9.7h2.7l5.2,8.6l5.1-8.6h2.6l0,13.9H106.4z"/>
		<path d="M112.7,9.7h3.2v13.9h-3.2V9.7z"/>
		<path d="M122,12.3h-4.4V9.7h12.1v2.6h-4.4v11.3H122V12.3z"/>
	</g>
</g>
</svg>
